<?xml version="1.0" encoding="UTF-8"?><svg id="Layer_2" xmlns="http://www.w3.org/2000/svg" viewBox="0 0 808.95 614.26"><defs><style>.cls-1{fill:#035660;}.cls-2{fill:#fdf9ef;}.cls-3{fill:#27c3bb;}</style></defs><g id="Layer_1-2"><path class="cls-1" d="M223.08,347.26c-4.57-.28-9.14-.5-13.7-.84-44.87-3.31-83.69-20.37-116.31-51.39-24.75-23.54-42.55-51.44-52.17-84.31-4.41-15.08-7.01-30.54-6.54-46.32.78-26.02-6.75-49.71-18.79-72.47-5.41-10.24-10.52-21-13.4-32.13C-2.5,41.66-.28,24.26,15.06,11.05,21.86,5.19,29.75,1.93,39.03.98c34.97-3.57,68.04,4.92,100.81,15.23,37.2,11.7,72.22,28.17,104.7,49.81,35.15,23.42,67.04,50.74,93.27,83.9,13.79,17.43,25.23,36.73,37.69,55.2,1.48,2.19,2.72,4.53,4.69,7.86,0-5.59.22-10.05-.03-14.49-1.95-34.71-8.74-68.28-23.78-99.87-4.93-10.36-11.36-19.58-20.89-26.32-5.53-3.9-11.51-6.57-17.04-6.8-2.81,4.49-4.48,8.98-7.65,11.73-3.76,3.25-8.67,2.83-12.89-.5-4.26-3.36-5.73-7.69-4.37-12.85,1.49-5.67,5.13-9.64,10.47-11.96,14.97-6.51,28.69-3.13,41.49,5.7,15.6,10.77,24.47,26.53,31.24,43.62,15.48,39.06,22.13,79.76,21.73,121.66-.04,4.25.88,7.47,4.96,9.36,4.7-2.51,6.13-6.23,6.18-11.69.45-43.3,6.55-85.59,24.17-125.59,7.61-17.28,18.1-32.26,35.42-41.19,9.13-4.71,18.9-6.38,29.05-4.37,7.66,1.52,13.52,5.65,16.11,13.33,2.46,7.27-1.72,14.43-9.12,16.11-7.03,1.59-13.05-2.7-14.34-10.25-.13-.79-.25-1.58-.4-2.57-7.66-.47-13.66,3-19.32,7.16-12.46,9.17-19.05,22.34-24.74,36.21-12.88,31.42-17.73,64.38-19.41,97.99-.1,1.99-.2,3.98.4,6.36.69-1.11,1.46-2.18,2.06-3.34,13.29-25.74,30.04-49,49.21-70.71,25.26-28.6,53.81-53.35,85.68-74.18,45.97-30.04,96.26-50.01,149.89-61.16C729.82,1.19,746.02-.01,761.92,0c33.51.02,55.19,30.76,44.12,62.38-4.98,14.24-11.87,27.87-18.64,41.41-8.61,17.2-13.1,35.19-12.64,54.38,1.33,55.03-21.17,99.71-59.74,137.32-14.18,13.82-30.32,24.98-48.3,33.36-25.4,11.83-52.24,17.29-80.15,17.97-1.29.03-2.57.2-4.21,1.23,1.83.85,3.66,1.72,5.5,2.53,18.59,8.2,37.03,16.64,53.5,28.85,33.68,24.98,50.26,58.93,51.5,100.26,1.28,42.64-15.01,78.11-47.76,105.31-27.87,23.15-60.53,31.55-96.42,27.8-39.3-4.1-68.42-25.4-92.3-55.17-16.07-20.03-26.16-43.19-33.41-67.62-3.47-11.69-6.39-23.55-9.72-35.94-2.96,2.28-6.02,4.65-9.27,7.15-3.09-2.29-6.22-4.62-9.71-7.21-2.29,8.55-4.34,16.44-6.52,24.3-5.45,19.69-11.85,39.06-21.7,57.03-10.59,19.31-23.91,36.6-41.56,50-37.11,28.18-78.62,36.6-122.68,21.59-41-13.97-68.07-43.71-81.06-85-12.5-39.73-6.63-77.72,16.42-112.27,13.98-20.96,33.66-36.17,56.21-47.44,9.79-4.89,19.78-9.4,29.67-14.09,0-.29,0-.58,0-.87ZM515.32,360.97c-2.78,3.11-5.56,6.23-8.33,9.34-6.47,7.19-12.94,14.39-19.41,21.58-2.89,3.09-5.78,6.18-8.68,9.27-7.87,6.9-15.74,13.8-23.6,20.7-3.21,3.05-6.43,6.1-9.64,9.14-4.36,2.85-8.82,5.58-12.99,8.68-.7.52-.47,2.77-.17,4.1,1.57,6.8,3.22,13.58,5,20.32,6.9,26.12,15.41,51.58,30.99,74.06,14.3,20.64,32.33,36.99,55.67,46.74,18.25,7.63,37.47,8.81,56.83,5.96,18.19-2.68,35.28-8.38,48.85-21.66,4.2-4.11,7.68-9.17,12.44-12.42,7.1-4.84,11.21-11.75,15.08-18.78,12.09-21.94,16.48-45.45,13-70.33-2.43-17.42-7.92-33.78-18.81-47.72-14.63-18.72-33.66-32.24-55.17-41.69-23.1-10.14-46.82-18.87-70.32-28.09-1.05-.41-3.16-.14-3.75.62-2.54,3.23-4.69,6.76-6.99,10.17ZM292.56,361.85c-2.39-4.03-4.18-8.73-7.48-11.76-1.33-1.22-6.01,1.17-9.15,2-1.11.3-2.14.9-3.24,1.29-26.99,9.54-53.76,19.66-78.61,34.08-41.07,23.83-63.95,64.2-56.38,112.94,5.51,35.48,25.17,61.8,55.92,79.65,24.63,14.3,51.48,14.48,78.37,9.03,19.46-3.94,34.92-15.93,49.02-29.27,19.15-18.11,31.55-40.62,40.04-65.32,2.95-8.57,4.74-17.54,7.09-26.32,2.18-8.14,4.46-16.24,6.53-24.41.27-1.05-.08-2.83-.82-3.45-3.93-3.28-8.08-6.29-12.16-9.39-3.29-2.8-6.58-5.6-9.87-8.4-1.98-2.11-3.82-4.37-5.96-6.3-5.7-5.14-11.52-10.14-17.3-15.19-2.75-3.01-5.5-6.02-8.25-9.04-6.43-6.67-12.86-13.34-19.29-20.01-2.82-3.37-5.64-6.74-8.46-10.11ZM298.35,239.15c7.72-5.12,15.44-10.24,23.15-15.36,4.57-1.57,9.14-3.14,13.71-4.71,7.01-.91,14.02-1.82,21.64-2.8-.62-1.45-1.03-2.83-1.75-4.02-4.79-7.98-9.49-16.03-14.5-23.87-8.82-13.8-19.74-25.85-30.72-37.98-15.96-17.64-32.59-34.49-51.85-48.39-16.14-11.64-33-22.31-49.78-33.04-21.25-13.59-44.56-22.98-68.2-31.28-14.55-5.11-29.66-9.04-44.83-11.86-15.64-2.9-31.63-5.13-47.49-5.25-20.59-.16-31.54,13.97-25.19,33.45,4,12.26,9.54,24.1,15.34,35.65,10.69,21.31,18,43.15,16.87,67.49-.47,10.22.31,20.75,2.3,30.78,8.87,44.7,32.81,80.07,69.53,106.47,28.72,20.65,61.06,31.29,96.77,30.78,15.49-.22,30.99,0,46.49,0,1.76,0,3.53-.18,5.36-.28-.66-10.32-1.28-20.08-1.91-29.83.36-4.32.72-8.64,1.08-12.97.09-.98-.05-2.06.3-2.94,4.28-10.71,8.2-21.61,15.66-30.7,2.68-3.13,5.35-6.25,8.03-9.38ZM535.03,295.14c-.76,9.87-1.53,19.74-2.32,29.88-.28-.14,0,.13.3.14,2.5.07,5,.18,7.49.11,26.81-.72,53.74,1.78,80.35-4.03,29.41-6.42,55.84-18.59,77.62-39.59,14.04-13.54,26.48-28.5,35.95-45.77,11.36-20.72,19.13-42.35,19.19-66.38.04-12.79.04-25.71,1.75-38.34,2.5-18.39,11.78-34.47,19.81-50.93,4.14-8.48,8.08-17.19,10.8-26.19,5.74-18.99-6.33-32.97-25.93-33.81-26.34-1.13-51.53,5.45-76.41,13.02-44.24,13.46-85.73,32.56-123.25,60.01-21.58,15.79-41.52,33.38-59.29,53.22-13.17,14.7-25.15,30.49-37.3,46.06-5.54,7.1-10.06,14.95-12.25,23.63,7.51,1.31,14.65,2.55,21.79,3.8,4.7,1.22,9.4,2.44,14.1,3.67,7.37,5.19,14.74,10.37,22.11,15.56l7.75,8.46c7.68,10.43,13.17,21.87,15.94,34.56.6,4.31,1.2,8.62,1.79,12.93ZM403.52,260.03c-.23-.21-.92-.7-1.43-1.33-10.61-12.93-24.29-19.35-40.95-20.98-25.34-2.48-49.82,10.96-60.73,34.12-6.71,14.23-8.95,29.38-5.38,44.28,3.81,15.89,12.31,29.97,23.15,42.51,24.43,28.26,52.54,52.41,82.25,74.84,2.8,2.12,4.69,1.69,7.39-.31,21.82-16.16,42.74-33.4,61.8-52.74,14.46-14.68,29.3-29.14,37.82-48.52,10.89-24.77,9.87-48.63-6.31-70.74-19.54-26.71-54.4-29.86-79.53-15.35-6.5,3.75-11.95,9.32-18.08,14.21Z"/><path class="cls-3" d="M533.24,282.21c-2.78-12.69-8.27-24.13-15.94-34.56,1.48-.99,3.18-1.77,4.41-3.01,10.8-10.86,21.62-21.72,32.21-32.78,3.11-3.25,6.3-4.73,10.89-4.63,13.49.3,27-.06,40.49.24,4.56.1,7.91-1.21,10.99-4.47,7.22-7.61,14.42-15.27,22.14-22.35,2.53-2.32,6.64-4.02,10.06-4.09,17.66-.36,35.32-.03,52.99-.11,3.2-.01,5.24.8,6.7,3.85,4.21,8.78,12.25,10.27,20.72,9.65,6.53-.48,10.23-5.08,12.65-10.95,3.74-9.05,1.04-18.7-6.91-23.71-8.77-5.53-18.97-4.4-25.1,3.56-2.75,3.58-5.73,4.48-9.77,4.47-18.66-.06-37.33.2-55.99-.08-6.74-.1-11.02,3.61-15.08,7.84-6.28,6.56-12.07,13.6-18.47,20.04-1.75,1.76-4.89,2.82-7.47,2.97-8.47.51-16.98.5-25.47.58-2.02.02-4.04-.41-6.72-.7,1.28-1.7,1.88-2.69,2.66-3.49,19.06-19.57,38.09-39.17,57.31-58.58,1.51-1.52,4.37-2.35,6.63-2.38,15.16-.21,30.33-.02,45.49-.2,4.03-.05,6.9.67,9.71,4.17,6.56,8.18,20.31,8.94,27.36,2.17,7.7-7.4,8.18-20.66,1-27.91-9.15-9.24-23.73-7.11-30.42,4.7-1.65,2.9-3.4,3.86-6.64,3.83-14.83-.12-29.66-.03-44.49.11-6.46.06-12.45.38-17.61,5.95-18.92,20.37-38.32,40.29-57.59,60.34-18.12,18.85-36.29,37.66-54.43,56.48-7.37-5.19-14.74-10.37-22.11-15.56,1.77-2.15,3.4-4.45,5.34-6.43,29.04-29.6,58.16-59.13,87.15-88.79,2.95-3.02,5.61-4.15,10.03-3.32,10.41,1.97,18.75-2.86,22.14-11.88,3.35-8.91.13-17.94-8.36-23.26-6.6-4.14-13.63-3.93-19.91-.06-7.16,4.41-9.5,11.54-8.45,19.95.26,2.1-.37,5.01-1.73,6.49-7.78,8.45-15.85,16.63-23.92,24.8-20.13,20.38-40.37,40.65-60.43,61.1-5.56,5.67-10.65,11.81-15.95,17.73-7.14-1.24-14.28-2.49-21.79-3.8,2.19-8.68,6.71-16.53,12.25-23.63,12.16-15.58,24.13-31.36,37.3-46.06,17.78-19.84,37.71-37.43,59.29-53.22,37.52-27.45,79.02-46.54,123.25-60.01,24.88-7.57,50.07-14.15,76.41-13.02,19.6.84,31.67,14.82,25.93,33.81-2.72,9-6.67,17.71-10.8,26.19-8.03,16.46-17.31,32.54-19.81,50.93-1.71,12.63-1.72,25.55-1.75,38.34-.07,24.03-7.83,45.66-19.19,66.38-9.47,17.26-21.91,32.22-35.95,45.77-21.78,21-48.21,33.17-77.62,39.59-26.61,5.81-53.54,3.31-80.35,4.03-2.49.07-4.99-.04-7.49-.11-.3,0-.58-.28-.3-.14.79-10.14,1.55-20.01,2.31-29.88,33.64-.31,67.29-.71,100.93-.82,5.15-.02,10.36,1.09,15.46,2.07,7.99,1.53,15.05.06,20.4-6.25,4.65-5.48,5.93-11.79,2.76-18.63-3.77-8.14-11.94-12.98-20.07-11.82-9.5,1.36-15.13,7.17-16.22,17.34-.37,3.45-1.39,4.94-5.1,4.94-33.32-.01-66.64.13-99.96.23ZM600.46,238.58v-.1c-7.66,0-15.32-.13-22.98.04-5.46.12-8.35,3.22-8.02,8.05.32,4.67,3.03,6.67,8.64,6.36,3.98-.21,7.97-.58,11.95-.61,11.99-.09,23.99.17,35.97-.2,2.81-.09,6.08-1.53,8.24-3.39,4.9-4.22,9.08-9.29,13.91-13.6,1.81-1.61,4.6-2.84,7-2.93,9.48-.36,18.98-.34,28.47-.07,1.65.05,3.87,1.59,4.76,3.08,4.78,7.98,14.53,11.32,22.9,7.51,9.63-4.38,14.96-14.95,11.77-23.67-2.93-8.01-8.73-12.95-17.24-13.55-8.17-.58-14.52,3.21-18.25,10.6-1.26,2.48-2.77,3.16-5.37,3.14-10.82-.09-21.66-.19-32.47.21-2.67.1-5.75,1.48-7.81,3.25-4.38,3.78-8.37,8.05-12.19,12.41-2.47,2.81-5.24,3.63-8.81,3.53-6.82-.19-13.65-.06-20.48-.06ZM713.65,57.91v-.02c-3.99,0-7.98,0-11.98,0-.33,0-.67-.01-1,0-5.41.3-8.54,2.95-8.48,7.17.06,4.45,2.94,6.7,8.62,6.68,8.65-.03,17.31-.27,25.95-.04,1.98.05,4.51,1.14,5.78,2.61,4.47,5.2,9.92,7.46,16.67,7.32,8.97-.19,16.28-6.07,18.1-14.82,1.99-9.62-2.4-18.32-11.1-22.03-8.77-3.74-18.75-1.84-22.73,6.31-3.33,6.81-7.88,7.26-13.83,6.84-1.99-.14-3.99-.02-5.99-.02Z"/><path class="cls-3" d="M321.5,223.79c-7.72,5.12-15.44,10.24-23.15,15.36-2.72-2.92-5.41-5.88-8.18-8.76-19.99-20.75-39.99-41.49-59.99-62.23-15.37-15.94-30.78-31.84-46.1-47.83-2.7-2.82-5.57-4.15-9.64-4.08-15.99.26-31.99.07-47.98.21-3.32.03-5.32-.69-6.97-4.03-5.85-11.86-20.78-14.15-30.27-4.96-5.19,5.03-7.02,15.1-3.88,21.35,3.56,7.08,12.82,12.7,20.42,11.62,5.59-.79,9.07-4.19,12.73-7.8,1.33-1.31,3.18-2.97,4.8-2.98,15.98-.13,31.98-.07,47.96.31,2.33.05,5.12,1.53,6.83,3.23,6.61,6.54,12.74,13.58,19.3,20.17,11.84,11.91,23.89,23.62,35.8,35.47,1.41,1.41,2.53,3.12,4.33,5.39-11.15,0-21.15.2-31.12-.14-2.51-.09-5.5-1.36-7.34-3.08-7.54-7.05-14.75-14.45-22.03-21.79-4.01-4.04-8.29-6.31-14.47-6.1-18.31.63-36.64.59-54.96.54-2.1,0-4.98-1.14-6.17-2.74-5.28-7.13-14.05-10.65-21.86-8.12-8.39,2.71-13.33,10.17-13.02,19.68.28,8.48,5.54,15.08,13.58,17.02,9.4,2.27,16.91-1.22,21.93-9.7.95-1.6,3.36-3.27,5.12-3.29,18.32-.25,36.65-.24,54.97-.07,2.11.02,4.76.89,6.22,2.32,7.61,7.43,14.82,15.26,22.37,22.75,3.4,3.38,7.11,6.11,12.55,6,13.82-.3,27.66-.26,41.48.02,2.49.05,5.54,1.31,7.32,3.05,9.77,9.54,19.19,19.43,28.8,29.13,3.03,3.05,6.28,5.88,9.43,8.81-7.46,9.09-11.38,19.99-15.66,30.7-.35.88-.21,1.95-.3,2.94-32.45-.17-64.91-.35-97.36-.49-3.48-.01-5.91-.26-5.77-5.03.25-8.19-6.19-15.58-13.9-16.96-8.9-1.6-19.6,3.7-22.35,11.29-2.89,7.94-1.89,15.05,4.59,21.14,5.91,5.56,13.12,6.72,19.92,3.97,5.78-2.34,11.24-2.06,16.96-1.95,4.82.1,9.63.48,14.44.52,27.46.19,54.93.32,82.39.47.62,9.75,1.25,19.51,1.91,29.83-1.84.1-3.6.28-5.36.28-15.5,0-31-.22-46.49,0-35.71.5-68.05-10.13-96.77-30.78-36.72-26.4-60.66-61.77-69.53-106.47-1.99-10.03-2.77-20.56-2.3-30.78,1.13-24.34-6.17-46.18-16.87-67.49-5.8-11.55-11.35-23.4-15.34-35.65-6.35-19.48,4.59-33.61,25.19-33.45,15.86.12,31.85,2.35,47.49,5.25,15.17,2.81,30.28,6.75,44.83,11.86,23.64,8.3,46.95,17.69,68.2,31.28,16.78,10.73,33.64,21.4,49.78,33.04,19.27,13.9,35.89,30.75,51.85,48.39,10.98,12.13,21.9,24.19,30.72,37.98,5.01,7.84,9.72,15.88,14.5,23.87.72,1.19,1.13,2.57,1.75,4.02-7.61.99-14.63,1.89-21.64,2.8-4.09-4.56-8-9.31-12.3-13.66-29.14-29.46-58.33-58.88-87.63-88.18-2.57-2.57-3.56-4.65-2.12-8.16.76-1.85.65-4.3.25-6.35-2-10.23-11.51-16.44-22.53-14.93-9.21,1.26-15.45,9.83-14.89,20.47.53,9.92,8.37,18.44,18.38,16.71,8.99-1.56,13.05,3.18,18.01,8.11,2.25,2.23,4.54,4.41,6.76,6.66,24.93,25.23,49.87,50.45,74.77,75.71,2.64,2.68,5.07,5.55,7.6,8.34ZM87.33,224.91c-.04,6.87,4.94,16.58,9.84,17.86,8.64,2.25,17.61,3.16,23.87-5.81,2.84-4.06,6.07-5.64,10.77-5.04,1.64.21,3.33,0,4.99.04,7.3.14,15.46-1.67,21.68,1,6.41,2.76,10.69,10.2,16.4,15.01,2.55,2.15,6.24,3.94,9.5,4.08,15.61.67,31.24.72,46.87,1,4.55.08,7.84-2.83,7.99-7.12.16-4.56-2.33-6.9-7.64-6.96-14.14-.16-28.28-.08-42.4-.53-2.81-.09-6.01-1.52-8.25-3.31-4.66-3.73-8.58-8.4-13.25-12.1-2.4-1.9-5.73-3.47-8.72-3.62-9.97-.48-19.98-.11-29.96-.44-1.86-.06-4.47-1.42-5.34-2.97-4.62-8.15-12.57-12.28-21.08-10.36-8.65,1.95-15.21,10.24-15.26,19.28ZM95.47,71.5s0,.06,0,.09c4.17,0,8.33,0,12.5,0,.17,0,.33.02.5.02,5.16.01,8.13-2.31,8.34-6.53.22-4.34-2.51-7.14-7.66-7.22-8.32-.12-16.65-.07-24.96.2-3.35.11-5.39-.4-6.89-3.98-2.27-5.39-6.45-9.04-12.55-10.36-8.12-1.76-17.84,2.41-21.27,9.54-4.28,8.9-2.61,18.88,4.03,24.17,7.51,5.97,18.44,6.66,24.66.12,5.1-5.37,10.56-6.76,17.31-6.08,1.98.2,4,.03,6,.03Z"/><path class="cls-3" d="M361.69,430.9c4.07,3.1,8.23,6.12,12.16,9.39.75.62,1.09,2.41.82,3.45-2.07,8.16-4.35,16.27-6.53,24.41-2.35,8.78-4.14,17.75-7.09,26.32-8.49,24.7-20.89,47.21-40.04,65.32-14.1,13.33-29.56,25.32-49.02,29.27-26.9,5.45-53.74,5.27-78.37-9.03-30.76-17.85-50.42-44.17-55.92-79.65-7.56-48.73,15.31-89.1,56.38-112.94,24.85-14.42,51.62-24.53,78.61-34.08,1.09-.39,2.12-.99,3.24-1.29,3.13-.83,7.82-3.22,9.15-2,3.31,3.04,5.09,7.73,7.48,11.77-2.92,3.15-5.77,6.37-8.78,9.44-17.22,17.6-34.43,35.22-51.81,52.66-1.43,1.43-4.08,2.22-6.19,2.3-7.48.27-14.99.31-22.46-.04-1.87-.09-4.31-1.49-5.38-3.05-5.39-7.84-16.25-10.91-24.72-6.61-7.1,3.6-11.44,11.57-10.32,18.93,1.32,8.67,7.67,15.27,16.11,16.73,8.48,1.47,15.03-1.79,19.15-9.96,1.33-2.63,2.91-3.57,5.79-3.51,8.82.16,17.65.22,26.46-.03,2.09-.06,4.7-.89,6.13-2.31,13.28-13.25,26.29-26.77,39.52-40.08,8.2-8.24,16.63-16.25,24.96-24.36,6.43,6.67,12.86,13.34,19.3,20.01-.94.67-1.99,1.22-2.8,2.02-13.34,13.23-26.71,26.42-39.93,39.76-9.85,9.94-19.45,20.11-29.24,30.11-10.61,10.83-21.27,21.61-32,32.32-3.99,3.98-8.5,3.86-11.47,0-5.25-6.81-13.99-9.56-21.77-6.86-8,2.78-12.5,9.7-12.37,19.03.12,8.46,6.56,15.98,15,17.51,9.79,1.78,17.97-2.39,20.73-11.27,1.04-3.35,2.64-4.18,5.64-4.04,5.12.25,9-1.67,12.69-5.51,23.4-24.41,47.05-48.59,70.66-72.79,1.62-1.67,3.62-2.97,6.23-5.07,0,14.21-.29,27.18.13,40.12.19,5.7-1.79,9.52-5.77,13.41-20.48,19.98-40.69,40.23-60.95,60.44-2.36,2.35-4.39,3.24-7.85,1.6-7.99-3.79-17.06-1.42-21.75,5.08-4.99,6.9-5.04,15.28-.13,21.82,4.92,6.57,13.77,9.25,21.43,6.51,8.09-2.9,12.49-9.85,12.17-18.56-.06-1.68.9-3.62,1.93-5.06,1.24-1.73,3.07-3.03,4.61-4.55,21.87-21.67,43.74-43.34,65.56-65.05.98-.98,2.04-2.34,2.17-3.62.54-5.08.97-10.2.99-15.31.07-15.15-.1-30.31-.08-45.46,0-1.41.23-3.23,1.09-4.16,4.3-4.59,8.85-8.95,13.32-13.38,5.78,5.05,11.6,10.05,17.3,15.19,2.14,1.93,3.98,4.19,5.96,6.3-3.77,3.97-7.41,8.06-11.34,11.85-2.57,2.48-3.76,5.1-3.74,8.77.04,6.11-.71,12.22-.85,18.34-.13,5.65-.63,11.44.38,16.93.83,4.51,0,7.67-3,10.77-15.48,16.08-30.87,32.27-46.45,48.25-1.31,1.35-3.83,1.74-5.87,2.12-4.2.79-8.83.4-12.61,2.05-8,3.49-12.19,14.63-9.12,22.04,3.47,8.39,14.13,13.44,22.85,10.84,8.86-2.65,14.44-11.59,12.07-20.71-.99-3.79.1-5.98,2.39-8.37,16.14-16.82,32.22-33.69,48.42-50.44,2.84-2.93,4.35-5.95,4.21-10.16-.28-8.16.71-16.43-.28-24.47-1.51-12.22,1.99-21.72,12.02-28.82.27-.19.54-.39.8-.59Z"/><path class="cls-3" d="M455.29,421.86c7.87-6.9,15.74-13.8,23.6-20.7,4.17,3.83,8.58,7.43,12.4,11.58,1.69,1.84,3.06,4.76,3.1,7.21.27,16.65.46,33.32.01,49.97-.2,7.62,1.68,12.89,7.64,18.46,22.11,20.65,43.38,42.2,64.8,63.58,1.6,1.6,2.55,4.54,2.58,6.87.07,5.7,1.67,10.49,6.13,14.12,7.19,5.84,17.53,5.37,24.71-1.06,6.66-5.95,8.14-15.43,3.55-22.57-5.26-8.18-14.22-10.63-23.57-6.93-1.64.65-4.73.17-5.95-1.02-21.6-21.26-43.07-42.65-64.36-64.21-1.88-1.9-3.2-5.19-3.27-7.88-.35-12.48-.19-24.98-.17-37.48,0-1.24.34-2.47.52-3.71l2.03-1.52c.74,1.52,1.17,3.35,2.28,4.53,9.47,10.04,19,20.04,28.65,29.91,14.04,14.36,28.23,28.56,42.28,42.91,3.84,3.93,7.74,7.18,13.8,6.4,3.08-.39,5.07.9,6.03,4.4,1.39,5.05,4.96,8.58,10.01,10.39,8.01,2.88,15.15.86,21.43-4.31,5.98-4.92,5.71-11.97,4.28-18.43-1.64-7.4-7.25-11.91-14.59-13.54-6.27-1.39-12.36-.65-16.96,4.57-5.99,6.79-9.27,6.94-15.84.39-33.12-33.06-66.22-66.14-99.35-99.19-1.04-1.03-2.33-1.82-3.5-2.71,6.47-7.19,12.94-14.39,19.41-21.58.49.67.9,1.41,1.48,2,20.87,21.27,41.72,42.56,62.74,63.68,1.54,1.55,4.36,2.47,6.62,2.55,9.31.36,18.65.34,27.97.32,2.58,0,3.94.57,5.17,3.3,5.46,12.14,22.91,14.2,31.3,3.94,7.07-8.65,5.85-21.3-2.66-27.57-9.4-6.92-21.29-4.89-28.13,4.46-1.22,1.67-3.85,3.09-5.91,3.21-6.64.38-13.32-.1-19.97.14-3.98.15-6.89-1.09-9.69-3.92-13.73-13.82-27.71-27.39-41.45-41.2-6.55-6.58-12.75-13.49-19.12-20.25,2.3-3.42,4.45-6.95,6.99-10.17.6-.76,2.7-1.03,3.75-.62,23.5,9.23,47.22,17.95,70.32,28.09,21.52,9.45,40.55,22.96,55.17,41.69,10.89,13.94,16.38,30.3,18.81,47.72,3.48,24.88-.91,48.39-13,70.33-3.87,7.03-7.98,13.94-15.08,18.78-4.75,3.24-8.24,8.31-12.44,12.42-13.58,13.28-30.66,18.98-48.85,21.66-19.37,2.85-38.58,1.67-56.83-5.96-23.34-9.75-41.37-26.1-55.67-46.74-15.58-22.49-24.08-47.94-30.99-74.06-1.78-6.74-3.43-13.53-5-20.32-.31-1.33-.54-3.58.17-4.1,4.17-3.11,8.63-5.83,12.99-8.68,3.33,3.21,6.94,6.19,9.89,9.71,1.64,1.96,3.04,4.81,3.09,7.3.31,12.66.08,25.32.2,37.99.02,1.88.28,4.2,1.38,5.54,4.18,5.11,8.62,10.01,13.19,14.77,12.69,13.21,25.57,26.25,38.18,39.55,1.57,1.66,3.1,4.73,2.65,6.7-2.09,9.37.05,15.71,7.62,19.97,7.58,4.26,17.39,2.99,23-3.14,4.85-5.3,6.09-11.57,3.26-18.09-3.06-7.04-8.47-11.49-16.53-11.64-4.12-.07-7.85.41-11.34-3.28-15.22-16.1-30.88-31.78-46.19-47.79-1.63-1.7-2.81-4.56-2.86-6.92-.27-12.99.01-25.99-.25-38.99-.05-2.38-1.17-5.17-2.71-7.01-4.05-4.83-8.6-9.25-12.96-13.83Z"/><path class="cls-2" d="M403.52,260.03c6.13-4.89,11.58-10.45,18.08-14.21,25.13-14.51,59.99-11.36,79.53,15.35,16.18,22.11,17.2,45.97,6.31,70.74-8.52,19.38-23.36,33.84-37.82,48.52-19.06,19.35-39.98,36.58-61.8,52.74-2.7,2-4.58,2.42-7.39.31-29.71-22.44-57.83-46.59-82.25-74.84-10.83-12.53-19.34-26.62-23.15-42.51-3.57-14.9-1.33-30.05,5.38-44.28,10.91-23.16,35.39-36.6,60.73-34.12,16.66,1.63,30.34,8.05,40.95,20.98.51.63,1.2,1.11,1.43,1.33ZM404.57,332.1c5.11,4.77,9.91,9.61,15.07,14,12.41,10.55,31.05,10.41,43.11-.11,13.72-11.96,16.85-29.45,7.87-43.99-10.74-17.4-33.12-21.19-49.39-8.12-5.66,4.55-10.81,9.74-16.63,15.03-4.28-4.37-8.27-8.81-12.65-12.84-11.36-10.46-27.23-12.77-39.73-6.04-13.28,7.14-20.26,20.96-17.86,35.32,4.1,24.54,31.06,36.47,51.64,22.49,6.66-4.52,12.37-10.44,18.57-15.76Z"/><path class="cls-2" d="M290.32,248.52c-3.15-2.93-6.41-5.76-9.43-8.81-9.61-9.7-19.03-19.59-28.8-29.13-1.78-1.74-4.83-3-7.32-3.05-13.82-.28-27.66-.32-41.48-.02-5.45.12-9.15-2.61-12.55-6-7.54-7.5-14.76-15.33-22.37-22.75-1.46-1.43-4.11-2.3-6.22-2.32-18.32-.17-36.65-.18-54.97.07-1.76.02-4.18,1.69-5.12,3.29-5.02,8.48-12.53,11.97-21.93,9.7-8.04-1.94-13.3-8.54-13.58-17.02-.31-9.5,4.63-16.97,13.02-19.68,7.81-2.52,16.58.99,21.86,8.12,1.19,1.6,4.06,2.74,6.17,2.74,18.32.05,36.65.08,54.96-.54,6.18-.21,10.46,2.06,14.47,6.1,7.27,7.33,14.48,14.74,22.03,21.79,1.84,1.72,4.83,2.99,7.34,3.08,9.97.35,19.97.14,31.12.14-1.81-2.27-2.92-3.98-4.33-5.39-11.91-11.84-23.96-23.56-35.8-35.47-6.56-6.6-12.68-13.63-19.3-20.17-1.71-1.69-4.5-3.17-6.83-3.23-15.98-.37-31.97-.43-47.96-.31-1.62.01-3.47,1.67-4.8,2.98-3.66,3.61-7.15,7.01-12.73,7.8-7.6,1.08-16.86-4.54-20.42-11.62-3.15-6.25-1.31-16.32,3.88-21.35,9.49-9.19,24.41-6.9,30.27,4.96,1.65,3.34,3.65,4.06,6.97,4.03,15.99-.14,31.99.05,47.98-.21,4.07-.07,6.94,1.26,9.64,4.08,15.32,15.99,30.73,31.89,46.1,47.83,20,20.74,40,41.47,59.99,62.23,2.77,2.88,5.45,5.84,8.18,8.76-2.68,3.13-5.35,6.25-8.03,9.38ZM79.16,171.3c.1,3.86,3.04,6.92,6.47,6.7,2.85-.18,6.56-4.3,6.29-7.29-.34-3.8-2.46-6.08-6.42-6.15-3.8-.06-6.44,2.83-6.35,6.74ZM109.28,121.56c.2-3.48-2.51-6.49-6.02-6.62-4.26-.16-6.15,2.59-6.33,6.2-.19,3.76,2.11,6.26,5.95,6.77,3.08.41,6.19-2.83,6.4-6.35Z"/><path class="cls-2" d="M509.54,239.18c18.15-18.82,36.32-37.63,54.43-56.48,19.27-20.05,38.67-39.97,57.59-60.34,5.16-5.56,11.15-5.88,17.61-5.95,14.83-.14,29.66-.23,44.49-.11,3.24.03,4.99-.93,6.64-3.83,6.7-11.81,21.27-13.94,30.42-4.7,7.18,7.24,6.7,20.51-1,27.91-7.05,6.77-20.8,6-27.36-2.17-2.81-3.5-5.68-4.22-9.71-4.17-15.16.18-30.33-.01-45.49.2-2.25.03-5.12.86-6.63,2.38-19.22,19.41-38.25,39.01-57.31,58.58-.79.81-1.38,1.8-2.66,3.49,2.67.29,4.7.72,6.72.7,8.49-.08,17-.07,25.47-.58,2.58-.15,5.72-1.21,7.47-2.97,6.4-6.44,12.18-13.48,18.47-20.04,4.06-4.24,8.34-7.95,15.08-7.84,18.66.28,37.33.02,55.99.08,4.04.01,7.01-.89,9.77-4.47,6.13-7.97,16.32-9.09,25.1-3.56,7.95,5.01,10.65,14.66,6.91,23.71-2.43,5.87-6.12,10.47-12.65,10.95-8.47.63-16.51-.87-20.72-9.65-1.46-3.05-3.51-3.86-6.7-3.85-17.66.08-35.33-.25-52.99.11-3.42.07-7.53,1.77-10.06,4.09-7.72,7.08-14.92,14.74-22.14,22.35-3.09,3.25-6.43,4.57-10.99,4.47-13.49-.31-27,.06-40.49-.24-4.59-.1-7.78,1.38-10.89,4.63-10.59,11.07-21.41,21.92-32.21,32.78-1.23,1.24-2.93,2.01-4.41,3.01-2.58-2.82-5.17-5.64-7.75-8.46ZM730.64,171.59c-.12-4.25-3.14-7.21-6.71-7.11-3.4.09-5.86,3.03-5.66,6.77.22,4.07,3.08,7.25,6.45,6.71,3.74-.6,5.66-3.12,5.92-6.36ZM707.19,115.29c-3.3.52-6,1.95-5.87,5.91.12,3.74,2.02,6.35,5.97,6.72,3.25.3,6.29-2.96,6.11-6.47-.19-3.72-2.49-5.57-6.21-6.17Z"/><path class="cls-2" d="M328.56,401.01c-4.46,4.44-9.02,8.79-13.32,13.38-.87.93-1.09,2.75-1.09,4.16-.02,15.15.15,30.31.08,45.46-.02,5.11-.45,10.22-.99,15.31-.14,1.28-1.19,2.64-2.17,3.62-21.82,21.72-43.69,43.38-65.56,65.05-1.54,1.52-3.37,2.82-4.61,4.55-1.03,1.44-1.99,3.38-1.93,5.06.32,8.71-4.09,15.66-12.17,18.56-7.66,2.75-16.5.06-21.43-6.51-4.91-6.54-4.86-14.92.13-21.82,4.69-6.49,13.75-8.87,21.75-5.08,3.46,1.64,5.49.75,7.85-1.6,20.26-20.2,40.47-40.45,60.95-60.44,3.99-3.89,5.96-7.71,5.77-13.41-.42-12.94-.13-25.91-.13-40.12-2.61,2.1-4.61,3.41-6.23,5.07-23.61,24.21-47.26,48.38-70.66,72.79-3.68,3.84-7.57,5.76-12.69,5.51-3-.15-4.6.69-5.64,4.04-2.76,8.88-10.94,13.05-20.73,11.27-8.45-1.53-14.89-9.05-15-17.51-.13-9.33,4.37-16.25,12.37-19.03,7.78-2.7,16.52.05,21.77,6.86,2.97,3.85,7.48,3.98,11.47,0,10.73-10.71,21.39-21.49,32-32.32,9.79-9.99,19.39-20.17,29.24-30.11,13.22-13.34,26.59-26.53,39.93-39.76.81-.8,1.86-1.35,2.8-2.02,2.75,3.01,5.5,6.02,8.25,9.03ZM224.62,562.84c.2-.14.36-.32.46-.54.27-.51.54-1.02.81-1.53.14-.5.27-.99.41-1.49-.22-5.79-3.4-7.76-8.71-5.39-.45.26-.9.51-1.36.77-3.27,2.4-2.44,4.92-.24,7.5.83.57,1.65,1.15,2.48,1.72,1.61-.05,3.22-.1,4.82-.16.27-.11.52-.25.74-.44.36.08.55-.07.58-.44ZM189.41,514.14c3.47.07,6.62-2.96,6.82-6.58.19-3.42-2.93-6.6-6.54-6.66-3.96-.07-6.68,2.51-6.69,6.34-.01,3.62,2.97,6.83,6.41,6.9Z"/><path class="cls-2" d="M487.57,391.89c1.17.9,2.46,1.68,3.5,2.71,33.13,33.05,66.24,66.13,99.35,99.19,6.57,6.55,9.85,6.41,15.84-.39,4.6-5.22,10.69-5.96,16.96-4.57,7.34,1.63,12.95,6.14,14.59,13.54,1.43,6.46,1.7,13.51-4.28,18.43-6.28,5.17-13.42,7.19-21.43,4.31-5.05-1.81-8.61-5.34-10.01-10.39-.96-3.5-2.95-4.79-6.03-4.4-6.06.77-9.96-2.48-13.8-6.4-14.04-14.35-28.24-28.55-42.28-42.91-9.65-9.87-19.18-19.87-28.65-29.91-1.11-1.18-1.54-3-2.28-4.53l-2.03,1.52c-.18,1.24-.52,2.47-.52,3.71-.02,12.49-.18,24.99.17,37.48.08,2.69,1.4,5.98,3.27,7.88,21.29,21.57,42.76,42.96,64.36,64.21,1.21,1.19,4.31,1.67,5.95,1.02,9.34-3.7,18.3-1.25,23.57,6.93,4.6,7.14,3.11,16.62-3.55,22.57-7.18,6.43-17.52,6.9-24.71,1.06-4.47-3.63-6.06-8.42-6.13-14.12-.03-2.33-.98-5.27-2.58-6.87-21.42-21.38-42.69-42.93-64.8-63.58-5.96-5.57-7.84-10.84-7.64-18.46.44-16.65.26-33.32-.01-49.97-.04-2.45-1.41-5.37-3.1-7.21-3.82-4.15-8.23-7.75-12.4-11.58,2.89-3.09,5.78-6.18,8.68-9.27ZM625.86,507.92c-.03-4.31-2.92-7.15-6.63-7.02-3.42.12-6.5,3.4-6.49,6.93,0,3.32,3.4,6.42,7.11,6.16,3.94-.28,5.82-2.71,6.02-6.06ZM587.41,552.66c-3.51.48-5.75,2.56-5.65,6.2.1,3.67,2.43,5.67,6.15,5.74,3.62.07,6.32-2.75,6.04-6.35-.3-3.9-2.93-5.25-6.54-5.59Z"/><path class="cls-2" d="M455.29,421.86c4.35,4.58,8.91,9,12.96,13.83,1.54,1.84,2.67,4.63,2.71,7.01.26,12.99-.02,25.99.25,38.99.05,2.35,1.23,5.21,2.86,6.92,15.31,16.01,30.97,31.69,46.19,47.79,3.49,3.69,7.22,3.21,11.34,3.28,8.06.14,13.47,4.6,16.53,11.64,2.83,6.52,1.59,12.79-3.26,18.09-5.61,6.13-15.42,7.4-23,3.14-7.57-4.26-9.71-10.6-7.62-19.97.44-1.97-1.08-5.04-2.65-6.7-12.61-13.3-25.49-26.33-38.18-39.55-4.57-4.76-9.01-9.67-13.19-14.77-1.1-1.34-1.36-3.67-1.38-5.54-.11-12.66.11-25.33-.2-37.99-.06-2.48-1.45-5.34-3.09-7.3-2.95-3.53-6.56-6.5-9.89-9.71,3.21-3.05,6.42-6.1,9.64-9.14ZM531.57,562.97c3.41-.31,5.52-2.14,5.57-5.67.05-3.92-2.59-5.73-6.05-5.79-3.36-.06-5.74,1.85-5.62,5.52.12,3.73,2.4,5.61,6.1,5.94Z"/><path class="cls-2" d="M473.33,219.96c5.3-5.92,10.39-12.06,15.95-17.73,20.06-20.45,40.3-40.72,60.43-61.1,8.07-8.17,16.14-16.35,23.92-24.8,1.36-1.48,1.99-4.39,1.73-6.49-1.05-8.41,1.29-15.53,8.45-19.95,6.27-3.87,13.31-4.08,19.91.06,8.49,5.33,11.71,14.35,8.36,23.26-3.39,9.02-11.72,13.85-22.14,11.88-4.42-.84-7.07.29-10.03,3.32-28.99,29.66-58.11,59.18-87.15,88.79-1.94,1.98-3.57,4.28-5.34,6.43-4.7-1.22-9.4-2.44-14.1-3.66ZM593.51,113.1c4.15.15,6.92-2.47,6.96-6.03.04-3.26-3.38-6.96-6.56-6.75-3.69.25-5.67,2.44-5.68,6.16,0,3.86,1.98,6.12,5.28,6.62Z"/><path class="cls-2" d="M361.69,430.9c-.27.2-.53.4-.8.59-10.03,7.1-13.53,16.6-12.02,28.82.99,8.04,0,16.32.28,24.47.15,4.21-1.37,7.23-4.21,10.16-16.2,16.75-32.28,33.63-48.42,50.44-2.3,2.39-3.38,4.58-2.39,8.37,2.38,9.12-3.2,18.06-12.07,20.71-8.72,2.61-19.39-2.45-22.85-10.84-3.07-7.42,1.12-18.55,9.12-22.04,3.78-1.65,8.41-1.27,12.61-2.05,2.04-.38,4.56-.77,5.87-2.12,15.59-15.98,30.97-32.16,46.45-48.25,2.99-3.11,3.82-6.26,3-10.77-1-5.49-.51-11.28-.38-16.93.14-6.12.89-12.23.85-18.34-.02-3.67,1.17-6.29,3.74-8.77,3.93-3.79,7.57-7.88,11.34-11.85,3.29,2.8,6.58,5.6,9.87,8.4ZM276.75,551.5c-3.27.52-5.62,2.06-5.58,5.74.04,3.61,2.3,5.62,5.64,5.68,3.72.07,5.76-2.41,5.88-6.03.12-3.87-2.71-4.89-5.94-5.39Z"/><path class="cls-2" d="M321.5,223.79c-2.53-2.78-4.96-5.66-7.6-8.34-24.9-25.26-49.84-50.48-74.77-75.71-2.22-2.25-4.52-4.43-6.76-6.66-4.97-4.93-9.02-9.66-18.01-8.11-10.01,1.74-17.85-6.79-18.38-16.71-.56-10.64,5.67-19.21,14.89-20.47,11.03-1.51,20.53,4.7,22.53,14.93.4,2.05.51,4.5-.25,6.35-1.45,3.51-.45,5.59,2.12,8.16,29.3,29.3,58.49,58.72,87.63,88.18,4.31,4.35,8.21,9.1,12.3,13.66-4.57,1.57-9.14,3.14-13.71,4.71ZM208.4,106.77c-.06,3.65,2.69,6.76,5.95,6.71,3.19-.04,6.69-3.73,6.43-7.07-.28-3.72-2.62-5.68-6.2-5.97-3.52-.29-6.12,2.5-6.18,6.33Z"/><path class="cls-2" d="M515.32,360.97c6.36,6.76,12.57,13.67,19.12,20.25,13.74,13.81,27.72,27.38,41.45,41.2,2.81,2.83,5.72,4.07,9.69,3.92,6.65-.25,13.33.24,19.97-.14,2.06-.12,4.69-1.54,5.91-3.21,6.85-9.35,18.73-11.38,28.13-4.46,8.52,6.27,9.74,18.92,2.66,27.57-8.39,10.25-25.83,8.19-31.3-3.94-1.23-2.73-2.59-3.3-5.17-3.3-9.32.02-18.66.04-27.97-.32-2.27-.09-5.08-1-6.62-2.55-21.02-21.12-41.87-42.41-62.74-63.68-.57-.59-.99-1.33-1.48-2,2.78-3.11,5.55-6.22,8.33-9.34ZM633.82,433.11c-.37-3.89-2.38-6.03-6.38-6.02-3.96,0-5.64,2.38-5.67,5.99-.03,3.86,1.79,6.26,5.93,6.32,4.25.07,5.66-2.63,6.12-6.29Z"/><path class="cls-2" d="M301.02,371.96c-8.33,8.11-16.76,16.12-24.96,24.36-13.23,13.31-26.24,26.83-39.52,40.08-1.43,1.42-4.04,2.26-6.13,2.31-8.81.24-17.64.19-26.46.03-2.87-.05-4.46.88-5.79,3.51-4.12,8.17-10.67,11.43-19.15,9.96-8.43-1.46-14.78-8.06-16.11-16.73-1.12-7.36,3.22-15.33,10.32-18.93,8.47-4.3,19.33-1.23,24.72,6.61,1.07,1.56,3.51,2.96,5.38,3.05,7.47.35,14.98.31,22.46.04,2.12-.08,4.76-.87,6.19-2.3,17.38-17.44,34.59-35.06,51.81-52.66,3-3.07,5.85-6.29,8.78-9.44,2.82,3.37,5.64,6.74,8.46,10.11ZM175.64,432.7c-.12,3.64,2.81,7.24,5.79,7.46,3.14.23,6.9-3.33,6.98-6.6.07-3.11-3.19-6.36-6.52-6.32-3.76.05-5.78,2.11-6.25,5.46Z"/><path class="cls-2" d="M273.28,295.12c-27.46-.15-54.93-.27-82.39-.47-4.82-.03-9.63-.42-14.44-.52-5.72-.12-11.18-.39-16.96,1.95-6.8,2.75-14,1.59-19.92-3.97-6.48-6.09-7.48-13.2-4.59-21.14,2.76-7.59,13.46-12.89,22.35-11.29,7.71,1.38,14.15,8.77,13.9,16.96-.15,4.77,2.29,5.02,5.77,5.03,32.46.14,64.91.32,97.36.49-.36,4.32-.72,8.64-1.08,12.96ZM153.5,284.52c2.99.07,5.93-2.9,5.83-6.2-.12-3.8-2.43-5.77-6.06-5.93-3.62-.16-6.18,1.46-6.45,5.36-.23,3.35,3.21,6.68,6.68,6.77Z"/><path class="cls-2" d="M533.24,282.21c33.32-.1,66.64-.24,99.96-.23,3.71,0,4.73-1.48,5.1-4.94,1.09-10.17,6.72-15.98,16.22-17.34,8.13-1.16,16.29,3.68,20.07,11.82,3.17,6.84,1.89,13.14-2.76,18.63-5.35,6.31-12.41,7.78-20.4,6.25-5.1-.98-10.31-2.09-15.46-2.07-33.64.11-67.29.51-100.93.82-.6-4.31-1.19-8.62-1.79-12.93ZM657.44,272.09c-3.62-.07-7.19,3.04-6.88,6.34.34,3.68,2.44,6.13,6.22,6.59,3.03.37,6.73-3.32,6.85-6.56.13-3.42-2.68-6.31-6.2-6.38Z"/><path class="cls-2" d="M600.46,238.58c6.83,0,13.66-.14,20.48.06,3.57.1,6.35-.72,8.81-3.53,3.82-4.36,7.82-8.63,12.19-12.41,2.05-1.77,5.14-3.15,7.81-3.25,10.81-.4,21.64-.3,32.47-.21,2.61.02,4.12-.66,5.37-3.14,3.74-7.38,10.08-11.17,18.25-10.6,8.51.6,14.3,5.53,17.24,13.55,3.19,8.71-2.14,19.28-11.77,23.67-8.38,3.81-18.13.47-22.9-7.51-.89-1.49-3.11-3.03-4.76-3.08-9.48-.27-18.99-.28-28.47.07-2.4.09-5.19,1.32-7,2.93-4.84,4.31-9.01,9.38-13.91,13.6-2.16,1.86-5.43,3.31-8.24,3.39-11.98.37-23.98.11-35.97.2-3.99.03-7.97.4-11.95.61-5.61.3-8.32-1.69-8.64-6.36-.33-4.83,2.55-7.92,8.02-8.05,7.66-.17,15.32-.04,22.98-.04v.1ZM711.39,224.9c-.4-4.11-2.42-6.44-6.37-6.46-3.77-.02-6.41,1.68-6.63,5.79-.21,3.92,2.99,7.2,6.77,6.93,3.96-.28,5.69-2.85,6.23-6.26Z"/><path class="cls-2" d="M713.65,57.91c2,0,4-.12,5.99.02,5.96.43,10.51-.02,13.83-6.84,3.98-8.14,13.96-10.05,22.73-6.31,8.71,3.71,13.1,12.41,11.1,22.03-1.81,8.75-9.13,14.63-18.1,14.82-6.75.14-12.2-2.12-16.67-7.32-1.27-1.48-3.8-2.56-5.78-2.61-8.64-.23-17.3,0-25.95.04-5.68.02-8.55-2.24-8.62-6.68-.06-4.23,3.07-6.88,8.48-7.17.33-.02.67,0,1,0,3.99,0,7.98,0,11.98,0v.02ZM747.96,69.36c4.22-.12,6.92-3.14,6.76-7.06-.16-4.03-2.45-6.06-6.38-6.1-3.78-.04-6.21,2.87-6.05,6.94.16,4.03,2.33,6,5.66,6.22Z"/><path class="cls-2" d="M87.33,224.91c.05-9.03,6.61-17.32,15.26-19.28,8.51-1.92,16.46,2.2,21.08,10.36.88,1.55,3.49,2.91,5.34,2.97,9.98.33,19.99-.05,29.96.44,2.99.15,6.32,1.72,8.72,3.62,4.68,3.71,8.59,8.38,13.25,12.1,2.24,1.79,5.44,3.23,8.25,3.31,14.13.45,28.27.37,42.4.53,5.3.06,7.8,2.41,7.64,6.96-.15,4.3-3.44,7.21-7.99,7.12-15.63-.28-31.26-.33-46.87-1-3.25-.14-6.95-1.93-9.5-4.08-5.7-4.81-9.98-12.24-16.4-15.01-6.22-2.68-14.37-.86-21.68-1-1.66-.03-3.35.17-4.99-.04-4.7-.6-7.93.98-10.77,5.04-6.27,8.97-15.23,8.06-23.87,5.81-4.91-1.28-9.88-10.99-9.84-17.86ZM112.58,225.69c.1-3.95-3.11-7.35-6.6-7.22-3.75.13-5.66,2.35-5.83,6.05-.19,4.03,2.31,6.89,6.1,6.88,4.08-.01,5.76-2.6,6.33-5.71Z"/><path class="cls-2" d="M95.47,71.5c-2,0-4.02.17-6-.03-6.75-.68-12.21.71-17.31,6.08-6.21,6.54-17.14,5.85-24.66-.12-6.65-5.29-8.31-15.27-4.03-24.17,3.43-7.14,13.14-11.3,21.27-9.54,6.1,1.32,10.28,4.97,12.55,10.36,1.5,3.58,3.54,4.09,6.89,3.98,8.32-.27,16.64-.32,24.96-.2,5.15.08,7.88,2.88,7.66,7.22-.21,4.22-3.18,6.54-8.34,6.53-.17,0-.33-.02-.5-.02-4.17,0-8.33,0-12.5,0,0-.03,0-.06,0-.09ZM59.86,56.26c-3.84.35-5.95,2.36-6.1,6.09-.15,3.75,2.89,6.9,6.41,6.91,3.72.01,6.3-2.88,6.19-6.93-.11-4.31-3.08-5.47-6.5-6.07Z"/><path class="cls-1" d="M404.57,332.1c-6.2,5.32-11.91,11.24-18.57,15.76-20.58,13.98-47.54,2.04-51.64-22.49-2.4-14.37,4.59-28.18,17.86-35.32,12.5-6.73,28.38-4.42,39.73,6.04,4.38,4.03,8.37,8.48,12.65,12.84,5.81-5.29,10.96-10.48,16.63-15.03,16.27-13.07,38.64-9.28,49.39,8.12,8.98,14.54,5.85,32.02-7.87,43.99-12.06,10.51-30.7,10.66-43.11.11-5.17-4.4-9.96-9.23-15.07-14ZM392.19,320.26c-5.57-5.01-10.07-9.66-15.18-13.5-6.89-5.18-15.61-4.1-21.23,1.92-5.83,6.25-6.28,14.39-1.16,20.86,5.25,6.62,14.33,8.7,21.43,3.99,5.59-3.71,10.45-8.52,16.14-13.27ZM416.86,320.2c5.36,4.69,9.8,8.94,14.62,12.71,6.43,5.04,16.31,3.8,22.22-2.43,5.38-5.66,5.53-14.97.35-20.89-5.68-6.48-14.49-7.85-21.52-2.72-5.32,3.88-10.08,8.52-15.67,13.32Z"/><path class="cls-3" d="M79.16,171.3c-.1-3.91,2.55-6.8,6.35-6.74,3.96.07,6.08,2.35,6.42,6.15.27,2.99-3.44,7.11-6.29,7.29-3.43.22-6.38-2.83-6.47-6.7Z"/><path class="cls-3" d="M109.28,121.56c-.21,3.52-3.32,6.76-6.4,6.35-3.84-.51-6.13-3.01-5.95-6.77.18-3.6,2.06-6.35,6.33-6.2,3.51.13,6.22,3.14,6.02,6.62Z"/><path class="cls-3" d="M730.64,171.59c-.26,3.24-2.19,5.77-5.92,6.36-3.38.54-6.23-2.64-6.45-6.71-.2-3.74,2.26-6.68,5.66-6.77,3.58-.1,6.59,2.87,6.71,7.11Z"/><path class="cls-3" d="M707.19,115.29c3.71.6,6.01,2.45,6.21,6.17.18,3.51-2.86,6.77-6.11,6.47-3.95-.37-5.85-2.99-5.97-6.72-.12-3.96,2.58-5.39,5.87-5.91Z"/><path class="cls-3" d="M189.41,514.14c-3.44-.07-6.42-3.28-6.41-6.9.01-3.83,2.73-6.4,6.69-6.34,3.61.06,6.73,3.24,6.54,6.66-.2,3.61-3.35,6.65-6.82,6.58Z"/><path class="cls-1" d="M226.3,559.28c-.14.5-.27.99-.41,1.49-.27.51-.54,1.02-.81,1.53-.11.22-.26.4-.46.54-.19.14-.39.29-.58.44-.22.19-.47.33-.74.44-1.61.05-3.22.11-4.83.16-.83-.57-1.65-1.15-2.47-1.72.08-2.5.16-5,.24-7.5.45-.26.9-.51,1.35-.76,4.26-.39,6.81,1.96,8.71,5.39Z"/><path class="cls-3" d="M226.3,559.28c-1.9-3.43-4.45-5.78-8.71-5.39,5.31-2.36,8.49-.4,8.71,5.39Z"/><path class="cls-3" d="M216.23,554.65c-.08,2.5-.16,5-.24,7.5-2.2-2.58-3.03-5.11.24-7.5Z"/><path class="cls-3" d="M218.47,563.87c1.61-.06,3.22-.11,4.83-.16-1.61.06-3.22.11-4.83.16Z"/><path class="cls-3" d="M225.08,562.3c.27-.51.54-1.02.81-1.53-.27.51-.54,1.02-.81,1.53Z"/><path class="cls-3" d="M224.03,563.28c.2-.15.39-.29.58-.44-.03.37-.23.52-.58.44Z"/><path class="cls-3" d="M625.86,507.92c-.2,3.35-2.08,5.78-6.02,6.06-3.7.26-7.1-2.83-7.11-6.16,0-3.52,3.07-6.81,6.49-6.93,3.71-.13,6.6,2.71,6.63,7.02Z"/><path class="cls-3" d="M587.41,552.66c3.61.34,6.24,1.69,6.54,5.59.28,3.59-2.42,6.41-6.04,6.35-3.72-.07-6.05-2.07-6.15-5.74-.1-3.64,2.15-5.71,5.65-6.2Z"/><path class="cls-3" d="M531.57,562.97c-3.7-.34-5.99-2.21-6.1-5.94-.11-3.67,2.26-5.58,5.62-5.52,3.46.06,6.1,1.87,6.05,5.79-.04,3.54-2.16,5.36-5.57,5.67Z"/><path class="cls-3" d="M593.51,113.1c-3.3-.5-5.29-2.75-5.28-6.62,0-3.72,1.99-5.91,5.68-6.16,3.18-.21,6.6,3.49,6.56,6.75-.04,3.56-2.81,6.18-6.96,6.03Z"/><path class="cls-3" d="M276.75,551.5c3.22.49,6.06,1.52,5.94,5.39-.12,3.62-2.16,6.1-5.88,6.03-3.33-.06-5.6-2.07-5.64-5.68-.04-3.68,2.31-5.22,5.58-5.74Z"/><path class="cls-3" d="M208.4,106.77c.06-3.83,2.66-6.62,6.18-6.33,3.58.29,5.92,2.25,6.2,5.97.25,3.34-3.25,7.03-6.43,7.07-3.26.04-6.01-3.06-5.95-6.71Z"/><path class="cls-3" d="M633.82,433.11c-.46,3.66-1.88,6.36-6.12,6.29-4.14-.07-5.96-2.47-5.93-6.32.03-3.61,1.71-5.98,5.67-5.99,4,0,6.02,2.13,6.38,6.02Z"/><path class="cls-3" d="M175.64,432.7c.46-3.35,2.49-5.42,6.25-5.46,3.33-.04,6.59,3.21,6.52,6.32-.07,3.27-3.84,6.83-6.98,6.6-2.98-.22-5.91-3.82-5.79-7.46Z"/><path class="cls-3" d="M153.5,284.52c-3.48-.09-6.91-3.42-6.68-6.77.27-3.9,2.83-5.53,6.45-5.36,3.63.16,5.94,2.13,6.06,5.93.1,3.29-2.84,6.27-5.83,6.2Z"/><path class="cls-3" d="M657.44,272.09c3.52.07,6.32,2.96,6.2,6.38-.12,3.23-3.82,6.93-6.85,6.56-3.78-.46-5.88-2.91-6.22-6.59-.31-3.3,3.25-6.41,6.88-6.34Z"/><path class="cls-3" d="M711.39,224.9c-.54,3.42-2.28,5.98-6.23,6.26-3.78.27-6.98-3.01-6.77-6.93.22-4.12,2.87-5.82,6.63-5.79,3.96.02,5.98,2.35,6.37,6.46Z"/><path class="cls-3" d="M747.96,69.36c-3.33-.22-5.51-2.19-5.66-6.22-.16-4.07,2.27-6.98,6.05-6.94,3.93.04,6.22,2.07,6.38,6.1.16,3.92-2.54,6.94-6.76,7.06Z"/><path class="cls-3" d="M112.58,225.69c-.56,3.11-2.25,5.7-6.33,5.71-3.8.01-6.29-2.85-6.1-6.88.18-3.7,2.08-5.92,5.83-6.05,3.49-.12,6.69,3.27,6.6,7.22Z"/><path class="cls-3" d="M59.86,56.26c3.42.6,6.39,1.76,6.5,6.07.11,4.05-2.48,6.94-6.19,6.93-3.52-.01-6.56-3.16-6.41-6.91.15-3.72,2.26-5.74,6.1-6.09Z"/><path class="cls-2" d="M392.19,320.26c-5.69,4.75-10.55,9.56-16.14,13.27-7.1,4.71-16.18,2.63-21.43-3.99-5.12-6.46-4.67-14.61,1.16-20.86,5.62-6.03,14.34-7.1,21.23-1.92,5.11,3.84,9.61,8.49,15.18,13.5Z"/><path class="cls-2" d="M416.86,320.2c5.59-4.8,10.35-9.43,15.67-13.32,7.03-5.14,15.85-3.76,21.52,2.72,5.18,5.92,5.02,15.23-.35,20.89-5.91,6.22-15.79,7.46-22.22,2.43-4.81-3.78-9.26-8.02-14.62-12.71Z"/></g></svg>